<?xml version="1.0" encoding="UTF-8" standalone="no"?>
<svg
   xmlns:dc="http://purl.org/dc/elements/1.1/"
   xmlns:cc="http://creativecommons.org/ns#"
   xmlns:rdf="http://www.w3.org/1999/02/22-rdf-syntax-ns#"
   xmlns:svg="http://www.w3.org/2000/svg"
   xmlns="http://www.w3.org/2000/svg"
   xmlns:sodipodi="http://sodipodi.sourceforge.net/DTD/sodipodi-0.dtd"
   xmlns:inkscape="http://www.inkscape.org/namespaces/inkscape"
   width="253.61861"
   height="350.68661"
   viewBox="0 0 253.61861 350.68661"
   version="1.1"
   preserveAspectRatio="xMidYMid"
   id="svg2"
   inkscape:version="0.48.4 r9939"
   sodipodi:docname="jenkins.svg">
  <metadata
     id="metadata142">
    <rdf:RDF>
      <cc:Work
         rdf:about="">
        <dc:format>image/svg+xml</dc:format>
        <dc:type
           rdf:resource="http://purl.org/dc/dcmitype/StillImage" />
      </cc:Work>
    </rdf:RDF>
  </metadata>
  <defs
     id="defs140" />
  <sodipodi:namedview
     pagecolor="#ffffff"
     bordercolor="#666666"
     borderopacity="1"
     objecttolerance="10"
     gridtolerance="10"
     guidetolerance="10"
     inkscape:pageopacity="0"
     inkscape:pageshadow="2"
     inkscape:window-width="1869"
     inkscape:window-height="1056"
     id="namedview138"
     showgrid="false"
     fit-margin-top="0"
     fit-margin-left="0"
     fit-margin-right="0"
     fit-margin-bottom="0"
     inkscape:zoom="2.263789"
     inkscape:cx="193.46044"
     inkscape:cy="238.41983"
     inkscape:window-x="51"
     inkscape:window-y="24"
     inkscape:window-maximized="1"
     inkscape:current-layer="svg2" />
  <path
     style="fill:#d33833"
     inkscape:connector-curvature="0"
     id="path6"
     d="m 249.84806,168.98152 c 0,69.45736 -55.06976,125.81705 -123.03875,125.81705 -67.969,0 -123.0387674,-56.35969 -123.0387674,-125.81705 0,-69.457359 55.0697674,-125.817049 123.0387674,-125.817049 67.96899,0 123.03875,56.35969 123.03875,125.817049" />
  <path
     style="fill:#ef3d3a"
     inkscape:connector-curvature="0"
     id="path8"
     d="m 8.8310077,200.13811 c 0,0 -8.93023251,-131.175189 112.0248123,-134.945732 L 112.42171,51.102456 46.834109,73.130363 28.08062,94.662146 11.708527,126.01718 l -9.3271317,36.51473 2.7782946,24.4093" />
  <path
     style="fill:#231f20"
     inkscape:connector-curvature="0"
     id="path10"
     d="M 42.567442,83.152068 C 21.035659,105.27919 7.64031,135.74121 7.64031,169.47764 l 0,0 c 0,33.73644 13.395349,64.19845 34.927132,86.32558 l 0,0 c 21.631008,22.12714 51.299225,35.72093 84.241868,35.72093 l 0,0 c 32.94263,0 62.61085,-13.59379 84.24186,-35.72093 l 0,0 c 21.53178,-22.12713 34.92713,-52.58914 34.92713,-86.32558 l 0,0 c 0,-33.73643 -13.39535,-64.19845 -34.92713,-86.325572 l 0,0 C 189.42016,61.124161 159.75194,47.431138 126.80931,47.431138 l 0,0 c -32.843418,0 -62.61086,13.593798 -84.241868,35.72093 l 0,0 0,0 z M 37.110078,261.06214 C 14.189148,237.64508 0,205.19857 0,169.47764 l 0,0 C 0,133.75671 14.189148,101.3102 37.110078,77.793928 l 0,0 c 22.92093,-23.417054 54.672868,-38.0031 89.699232,-38.0031 l 0,0 c 35.02635,0 66.77829,14.586046 89.69922,38.0031 l 0,0 c 22.92093,23.417052 37.11008,55.863562 37.11008,91.683712 l 0,0 c 0,35.72093 -14.18915,68.16744 -37.11008,91.5845 l 0,0 c -22.92093,23.51628 -54.67287,38.0031 -89.69922,38.0031 l 0,0 c -35.026364,0 -66.778302,-14.48682 -89.699232,-38.0031 l 0,0 0,0 z" />
  <path
     style="fill:#f0d6b7"
     inkscape:connector-curvature="0"
     id="path12"
     d="m 178.60465,169.67609 -18.75348,2.7783 -25.30233,2.87752 -16.37209,0.3969 -15.9752,-0.49613 -12.204651,-3.77054 -10.815503,-11.70853 -8.434109,-23.91318 -1.885271,-5.15969 -11.212403,-3.77054 -6.548838,-10.8155 -4.663565,-15.47907 5.159689,-13.593794 12.204652,-4.266667 9.823256,4.663566 4.663565,10.31938 5.655814,-0.893024 1.885272,-2.381395 -1.885272,-10.815504 -0.496124,-13.593798 2.778295,-18.753489 -0.09922,-10.716279 8.533333,-13.693023 14.982945,-10.815504 26.19535,-11.2124035 29.07287,4.2666667 25.30233,18.2573648 11.70852,18.753488 7.54109,13.593799 1.88527,33.736434 -5.65581,29.072862 -10.31938,25.79845 -9.72403,13.79225" />
  <path
     style="fill:#335061"
     inkscape:connector-curvature="0"
     id="path14"
     d="m 162.72868,250.74276 -66.976742,2.77829 0,11.21241 5.655822,39.39224 -2.778302,3.27442 -46.834109,-15.97519 -3.274419,-5.65581 -4.663565,-52.98605 -11.013954,-31.75194 -2.381395,-7.54108 37.506976,-25.79845 11.708528,-4.66357 10.319379,12.70078 8.930233,7.93798 10.319378,3.27442 4.66357,1.38915 5.65582,24.4093 4.26666,5.15969 10.8155,-3.77054 -7.54108,14.58604 40.68217,19.24961 -5.06047,2.7783" />
  <path
     style="fill:#6d6b6d"
     inkscape:connector-curvature="0"
     id="path16"
     d="m 51.596899,87.220285 12.204652,-4.266667 9.823256,4.663566 4.663565,10.31938 5.655814,-0.893023 1.389148,-5.655814 L 82.555039,80.572223 85.333334,54.773773 82.951938,40.683851 91.386047,30.860595 109.64341,16.373773 104.48372,9.3288118 78.685272,22.029587 67.869768,30.463696 61.817054,43.56137 52.489923,56.262146 49.711628,71.245091 51.596899,87.220285" />
  <path
     style="fill:#dcd9d8"
     inkscape:connector-curvature="0"
     id="path18"
     d="m 70.846512,43.164471 c 0,0 7.044961,-17.364341 35.125588,-25.79845 28.08062,-8.4341084 1.38914,-6.052713 1.38914,-6.052713 l -30.462015,11.708527 -11.708527,11.708528 -5.15969,9.327131 10.815504,-0.893023" />
  <path
     style="fill:#dcd9d8"
     inkscape:connector-curvature="0"
     id="path20"
     d="m 56.756589,83.945867 c 0,0 -9.823255,-32.843411 27.683721,-37.506977 l -1.389147,-5.655814 -25.79845,6.052713 -7.541085,24.409302 1.885271,15.975194 5.15969,-3.274418" />
  <path
     style="fill:#f7e4cd"
     inkscape:connector-curvature="0"
     id="path22"
     d="m 71.739535,127.50555 6.151938,-5.95349 c 0,0 2.778295,0.29768 3.274419,3.57209 0.496124,3.27442 1.885271,32.84342 22.027908,48.71938 1.88527,1.48838 -14.982947,-2.38139 -14.982947,-2.38139 L 73.227907,148.04508" />
  <path
     style="fill:#f7e4cd"
     inkscape:connector-curvature="0"
     id="path24"
     d="m 157.96589,118.57532 c 0,0 1.09148,-14.18915 4.96124,-13.09768 3.86977,1.09148 3.86977,4.96124 3.86977,4.96124 0,0 -9.32713,5.95349 -8.83101,8.13644" />
  <path
     style="fill:#f7e4cd"
     inkscape:connector-curvature="0"
     id="path26"
     d="m 196.86202,66.581525 c 0,0 -7.73954,1.587597 -8.43411,8.434109 -0.69457,6.846512 8.43411,1.389147 9.82326,0.893023" />
  <path
     style="fill:#f7e4cd"
     inkscape:connector-curvature="0"
     id="path28"
     d="m 140.20465,67.077649 c 0,0 -10.31937,1.389148 -10.31937,7.937985 0,6.548837 11.70852,6.052713 14.98294,3.274418" />
  <path
     style="fill:#f7e4cd"
     inkscape:connector-curvature="0"
     id="path30"
     d="m 76.502326,97.539665 c 0,0 -17.76124,-10.815504 -19.646512,-0.496124 -1.885271,10.319369 -6.052713,17.761239 2.778295,28.576739 l -6.052713,-1.88527 -5.655814,-14.48682 -1.885272,-14.08992 10.815504,-11.212403 12.204651,0.893023 7.044962,5.655814 0.396899,7.044961" />
  <path
     style="fill:#f7e4cd"
     inkscape:connector-curvature="0"
     id="path32"
     d="m 84.936434,67.970673 c 0,0 7.937985,-41.27752 48.223256,-49.215504 33.14109,-6.548837 50.60465,1.389147 57.15349,8.930232 0,0 -29.56899,-35.1255814 -57.64961,-24.4093024 C 104.58295,14.091603 83.944186,33.738115 84.44031,46.339665 c 0.793799,21.631008 0.496124,21.631008 0.496124,21.631008" />
  <path
     style="fill:#f7e4cd"
     inkscape:connector-curvature="0"
     id="path34"
     d="m 193.5876,32.348967 c 0,0 -13.5938,-0.496124 -14.08992,11.708527 0,0 0,1.885272 0.89302,3.770543 0,0 10.8155,-12.204651 17.36434,-5.655814" />
  <path
     style="fill:#f7e4cd"
     inkscape:connector-curvature="0"
     id="path36"
     d="m 134.15194,49.117959 c 0,0 -2.38139,-18.654263 -18.25736,-7.838759 -10.31938,7.044961 -9.32713,16.868217 -7.54109,18.753488 1.88527,1.885272 1.38915,5.655814 2.7783,3.075969 1.38914,-2.579845 0.99224,-11.013953 6.15193,-13.395349 5.06047,-2.381395 13.5938,-4.96124 16.86822,-0.595349" />
  <path
     style="fill:#49728b"
     inkscape:connector-curvature="0"
     id="path38"
     d="M 90.096124,175.72881 46.04031,195.37532 c 0,0 18.257365,72.63256 8.930233,95.15659 l -6.548837,-2.3814 -0.496124,-27.68372 -12.204652,-52.3907 -5.159689,-14.48682 45.941085,-30.95814 13.593798,13.09768" />
  <path
     style="fill:#49728b"
     inkscape:connector-curvature="0"
     id="path40"
     d="m 94.561241,215.91485 6.251169,7.64031 0,28.08062 -7.441867,0 c 0,0 -0.893023,-19.64651 -0.893023,-22.0279 0,-2.3814 0.893023,-10.81551 0.893023,-10.81551" />
  <path
     style="fill:#49728b"
     inkscape:connector-curvature="0"
     id="path42"
     d="m 94.75969,255.90245 -21.134883,0.89302 6.052713,4.26667 14.982945,2.38139" />
  <path
     style="fill:#335061"
     inkscape:connector-curvature="0"
     id="path44"
     d="m 166.89613,251.23888 17.36434,-0.49612 4.26666,43.06357 -17.76124,2.38139 -3.86976,-44.94884" />
  <path
     style="fill:#335061"
     inkscape:connector-curvature="0"
     id="path46"
     d="m 171.55969,251.23888 26.19535,-1.38914 c 0,0 10.81551,-27.1876 10.81551,-28.57675 0,-1.38915 9.32713,-39.39225 9.32713,-39.39225 l -21.13489,-22.0279 -4.26666,-3.77055 -11.21241,11.21241 0,43.55969 -9.72403,40.38449" />
  <path
     style="fill:#49728b"
     inkscape:connector-curvature="0"
     id="path48"
     d="m 183.26822,247.96446 -16.37209,3.27442 2.38139,13.09768 c 6.05272,2.77829 16.3721,-4.66357 16.3721,-4.66357" />
  <path
     style="fill:#49728b"
     inkscape:connector-curvature="0"
     id="path50"
     d="m 183.76434,165.90555 32.84341,24.4093 0.89303,-11.2124 -24.8062,-22.92093 -8.93024,9.72403" />
  <path
     style="fill:#ffffff"
     inkscape:connector-curvature="0"
     id="path52"
     d="m 111.03256,343.51795 -9.72403,-39.39225 -4.862018,-29.07286 -0.793799,-21.53179 43.956597,-2.38139 27.28682,0 -2.48062,49.2155 4.26666,38.0031 -0.49612,7.04497 -35.62171,2.77829 -21.53178,-4.66357" />
  <path
     style="fill:#dcd9d8"
     inkscape:connector-curvature="0"
     id="path54"
     d="m 160.84341,250.74276 c 0,0 -2.38139,48.71938 4.66357,83.44806 0,0 -14.08992,8.93023 -34.62946,11.21241 l 39.39225,-1.38915 4.66357,-2.7783 -5.65582,-76.8 -1.48837,-16.47132" />
  <path
     style="fill:#ffffff"
     inkscape:connector-curvature="0"
     id="path56"
     d="m 189.22171,290.13501 18.25736,-5.15969 34.62946,-1.88527 5.15969,-15.9752 -9.32713,-27.68372 -10.81551,-1.38915 -14.98294,4.66357 -14.28837,7.04496 -7.64031,-1.38915 -5.95349,2.3814" />
  <path
     style="fill:#dcd9d8"
     inkscape:connector-curvature="0"
     id="path58"
     d="m 188.92403,280.70865 c 0,0 12.20465,-5.65581 14.08993,-5.15969 l -5.15969,-25.79845 6.05271,-2.38139 c 0,0 4.26667,24.4093 4.26667,27.18759 0,0 26.19535,1.38915 28.57674,1.38915 0,0 5.65581,-10.8155 4.26667,-22.02791 l 5.15969,14.98295 0.49612,8.43411 -7.54108,11.2124 -8.43411,1.88527 -14.08993,-0.49612 -4.66356,-6.05272 -16.37209,2.3814 -5.15969,1.88527" />
  <path
     style="fill:#ffffff"
     inkscape:connector-curvature="0"
     id="path60"
     d="m 170.46822,247.46834 -10.31938,-26.19535 -10.8155,-15.47907 c 0,0 2.38139,-6.54884 5.65581,-6.54884 l 10.8155,0 10.31938,3.77055 -0.89302,17.36434 -4.76279,27.08837" />
  <path
     style="fill:#dcd9d8"
     inkscape:connector-curvature="0"
     id="path62"
     d="m 172.55194,238.53811 c 0,0 -13.09767,-25.30233 -13.09767,-29.07287 0,0 2.38139,-5.65581 5.65581,-4.26667 3.27442,1.38915 10.31938,5.15969 10.31938,5.15969 l 0,-8.93023 -15.97519,-3.27442 -10.81551,1.38915 18.25737,43.26201 3.77054,0.49613" />
  <path
     style="fill:#ffffff"
     inkscape:connector-curvature="0"
     id="path64"
     d="m 115.2,176.72105 -12.99845,-1.38914 -12.204651,-3.77055 0,4.26667 5.953489,6.54884 18.753492,8.43411" />
  <path
     style="fill:#dcd9d8"
     inkscape:connector-curvature="0"
     id="path66"
     d="m 94.263566,178.1102 c 0,0 14.486824,6.05271 19.249614,4.66357 l 0.49613,5.65581 -13.09768,-2.77829 -7.937986,-5.65582 1.289922,-1.88527" />
  <path
     style="fill:#d33833"
     inkscape:connector-curvature="0"
     id="path68"
     d="m 189.22171,200.83268 c -7.93799,-0.19845 -15.1814,-1.1907 -21.43256,-2.97674 0.3969,-2.57985 -0.3969,-5.06047 0.29767,-6.94574 1.78605,-1.28992 4.66357,-1.28992 7.34264,-1.5876 -2.28217,-1.09147 -5.55659,-1.58759 -8.13643,-0.89302 -0.0992,-1.78605 -0.89303,-2.87752 -1.38915,-4.26667 4.46512,-1.58759 14.98294,-12.0062 20.93643,-8.63255 2.87752,1.68682 4.06822,11.01395 4.26667,15.67752 0.19845,3.77054 -0.3969,7.54108 -1.88527,9.6248" />
  <path
     style="stroke:#d33833;stroke-width:2"
     inkscape:connector-curvature="0"
     id="path70"
     d="m 189.22171,200.83268 c -7.93799,-0.19845 -15.1814,-1.1907 -21.43256,-2.97674 0.3969,-2.57985 -0.3969,-5.06047 0.29767,-6.94574 1.78605,-1.28992 4.66357,-1.28992 7.34264,-1.5876 -2.28217,-1.09147 -5.55659,-1.58759 -8.13643,-0.89302 -0.0992,-1.78605 -0.89303,-2.87752 -1.38915,-4.26667 4.46512,-1.58759 14.98294,-12.0062 20.93643,-8.63255 2.87752,1.68682 4.06822,11.01395 4.26667,15.67752 0.19845,3.77054 -0.3969,7.54108 -1.88527,9.6248 l 0,0 z" />
  <path
     style="fill:#d33833"
     inkscape:connector-curvature="0"
     id="path72"
     d="m 151.21861,187.83423 c 0,0.59535 0,1.1907 -0.0992,1.78605 -2.48062,1.5876 -6.44961,1.5876 -9.2279,2.97674 3.96899,0.19845 7.14418,1.1907 9.92248,2.48062 -0.0992,1.48838 -0.0992,3.07597 -0.19845,4.56434 -4.56434,3.07597 -8.73179,7.73954 -14.08992,10.71628 -2.57985,1.38915 -11.41086,4.96124 -14.08993,4.26667 -1.48837,-0.3969 -1.68682,-2.28217 -2.28217,-4.06822 -1.28992,-3.77054 -4.26667,-9.92248 -4.56434,-15.67752 -0.29767,-7.24341 -1.09147,-19.44806 6.74729,-17.95969 6.35038,1.1907 13.69302,4.06822 18.55504,6.74729 3.07596,1.78605 4.76279,3.77054 9.32713,4.16744" />
  <path
     style="stroke:#d33833;stroke-width:2"
     inkscape:connector-curvature="0"
     id="path74"
     d="m 151.21861,187.83423 c 0,0.59535 0,1.1907 -0.0992,1.78605 -2.48062,1.5876 -6.44961,1.5876 -9.2279,2.97674 3.96899,0.19845 7.14418,1.1907 9.92248,2.48062 -0.0992,1.48838 -0.0992,3.07597 -0.19845,4.56434 -4.56434,3.07597 -8.73179,7.73954 -14.08992,10.71628 -2.57985,1.38915 -11.41086,4.96124 -14.08993,4.26667 -1.48837,-0.3969 -1.68682,-2.28217 -2.28217,-4.06822 -1.28992,-3.77054 -4.26667,-9.92248 -4.56434,-15.67752 -0.29767,-7.24341 -1.09147,-19.44806 6.74729,-17.95969 6.35038,1.1907 13.69302,4.06822 18.55504,6.74729 3.07596,1.78605 4.76279,3.77054 9.32713,4.16744 l 0,0 z" />
  <path
     style="fill:#d33833"
     inkscape:connector-curvature="0"
     id="path76"
     d="m 155.68372,196.46679 c -0.69457,-3.96899 -1.48837,-5.06046 -1.19069,-8.53333 10.61705,-7.04496 12.50232,12.10542 1.19069,8.53333" />
  <path
     style="stroke:#d33833;stroke-width:2"
     inkscape:connector-curvature="0"
     id="path78"
     d="m 155.68372,196.46679 c -0.69457,-3.96899 -1.48837,-5.06046 -1.19069,-8.53333 10.61705,-7.04496 12.50232,12.10542 1.19069,8.53333 l 0,0 z" />
  <path
     style="fill:#ef3d3a"
     inkscape:connector-curvature="0"
     id="path80"
     d="m 170.96434,199.64198 c 0,0 -3.27441,-4.66356 -0.89302,-6.05271 2.3814,-1.38915 4.66357,0 6.05271,-2.38139 1.38915,-2.3814 0,-3.77055 0.49613,-6.54884 0.49612,-2.7783 2.77829,-3.27442 5.15969,-3.77054 2.38139,-0.49613 8.93023,-1.38915 9.82325,0.89302 l -2.77829,-8.43411 -5.65581,-1.88527 -17.76125,10.31938 -0.89302,5.15969 0,10.31938" />
  <path
     style="fill:#ef3d3a"
     inkscape:connector-curvature="0"
     id="path82"
     d="m 121.74884,215.12105 c -0.59535,-7.34263 -1.1907,-14.58604 -1.78605,-21.92868 -0.99224,-10.91473 2.57985,-9.02946 12.10543,-9.02946 1.48837,0 8.93023,1.68683 9.42636,2.7783 2.57984,5.25891 -4.26667,4.06822 2.97674,8.03721 6.05271,3.27442 16.86822,-1.9845 14.3876,-9.42636 -1.38915,-1.68682 -7.14419,-0.49612 -9.22791,-1.5876 -3.67132,-1.88527 -7.34264,-3.77054 -11.01395,-5.65581 -4.66357,-2.38139 -15.37985,-5.95349 -20.34109,-2.57984 -12.60155,8.53333 0.7938,29.96589 5.25892,38.89612" />
  <path
     style="fill:#231f20"
     inkscape:connector-curvature="0"
     id="path84"
     d="m 134.15194,49.117959 c -12.8,-2.976744 -19.15039,5.35814 -23.02015,13.990698 -3.47287,-0.793798 -2.08372,-5.556589 -1.1907,-7.937984 2.28217,-6.251163 11.51008,-14.685272 19.05116,-13.494574 3.17519,0.396899 7.54109,3.373643 5.15969,7.44186" />
  <path
     style="fill:#231f20"
     inkscape:connector-curvature="0"
     id="path86"
     d="m 196.36589,63.604781 0.59535,0 c 2.87752,5.953489 5.35814,12.303876 9.02946,17.662016 -2.48062,5.755039 -18.45581,10.716279 -18.25736,0.595349 3.47286,-1.488373 9.42635,-0.297675 12.50232,-2.282171 -1.78604,-4.862016 -4.26666,-9.029457 -3.86977,-15.975194" />
  <path
     style="fill:#231f20"
     inkscape:connector-curvature="0"
     id="path88"
     d="m 140.60155,63.803231 c 2.7783,5.060465 3.67132,10.31938 7.54109,14.089922 1.78604,1.686822 5.15969,3.770543 3.47287,8.533334 -0.3969,1.091472 -3.27442,3.572093 -4.96124,4.068217 -6.05272,1.786046 -20.24186,0.396899 -15.47907,-7.243411 5.06046,0.198449 11.80775,3.274418 15.57829,-0.396899 -2.87752,-4.564342 -8.03721,-13.693024 -6.15194,-19.051163" />
  <path
     style="fill:#231f20"
     inkscape:connector-curvature="0"
     id="path90"
     d="m 194.08372,114.80478 c -9.12868,5.85426 -19.34883,12.30387 -34.431,10.8155 -3.1752,-2.7783 -4.46512,-9.02946 -1.28993,-13.09767 1.5876,2.77829 0.59535,7.93798 5.15969,8.73178 8.53334,1.48837 18.45582,-5.25892 24.60776,-7.54109 3.77054,-6.44961 -0.29768,-8.73178 -3.77055,-12.89922 -7.04496,-8.434105 -16.37209,-18.951934 -16.07442,-31.553485 2.87752,-2.083721 3.07597,3.175194 3.47287,4.068217 3.67132,8.533334 12.89923,19.547287 19.54729,26.889918 1.68682,1.78605 4.36589,3.57209 4.66357,4.76279 0.89302,3.37364 -2.28218,7.54109 -1.88528,9.82326" />
  <path
     style="fill:#231f20"
     inkscape:connector-curvature="0"
     id="path92"
     d="m 73.227907,108.65284 c -2.877519,-1.68682 -3.572093,-8.831004 -6.945736,-9.029454 -4.862016,-0.297675 -3.968992,9.327124 -3.968992,14.982944 -3.274419,-2.97675 -3.869768,-12.30388 -1.488373,-17.066665 -2.778294,-1.389147 -3.968992,1.488372 -5.556589,2.480625 2.083721,-14.387602 21.134884,-6.648067 17.95969,8.63255" />
  <path
     style="fill:#231f20"
     inkscape:connector-curvature="0"
     id="path94"
     d="m 199.83876,120.85749 c -4.26666,8.13643 -10.31938,17.06666 -22.8217,17.36434 -0.29768,-2.57985 -0.49613,-6.64806 0,-8.23566 9.6248,-0.99225 15.57829,-5.85426 22.8217,-9.12868" />
  <path
     style="fill:#231f20"
     inkscape:connector-curvature="0"
     id="path96"
     d="m 139.90698,126.1164 c 7.93798,4.16744 22.62326,4.66357 33.53798,4.3659 0.59535,2.38139 0.59535,5.35813 0.59535,8.23565 -13.99069,0.59535 -30.46201,-2.87752 -34.13333,-12.60155" />
  <path
     style="fill:#231f20"
     inkscape:connector-curvature="0"
     id="path98"
     d="m 138.41861,133.85594 c 5.55659,13.89147 24.50852,12.30387 40.48372,11.90698 -0.69458,1.78604 -2.18295,3.96899 -4.16744,4.66356 -5.15969,2.08372 -19.24962,3.67132 -26.3938,-0.0992 -4.46512,-2.3814 -7.44186,-7.83876 -9.92248,-11.01396 -1.09148,-1.48837 -7.04496,-5.35814 0,-5.45736" />
  <path
     style="fill:#81b0c4"
     inkscape:connector-curvature="0"
     id="path100"
     d="m 193.38915,210.35826 c -6.44961,11.11318 -12.70078,22.52403 -20.34109,32.24807 3.1752,-9.42636 4.56435,-25.30233 5.06047,-37.40776 6.74729,-3.17519 12.50233,0.69458 15.28062,5.15969" />
  <path
     style="fill:#231f20"
     inkscape:connector-curvature="0"
     id="path102"
     d="m 228.21706,250.24664 c -7.24341,1.48837 -12.30388,8.53333 -19.44806,8.0372 3.96899,-5.45736 10.71627,-7.83876 19.44806,-8.0372" />
  <path
     style="fill:#231f20"
     inkscape:connector-curvature="0"
     id="path104"
     d="m 231.39225,261.55826 c -5.95349,0.59535 -12.89922,1.5876 -18.85271,1.09148 2.87752,-4.3659 13.79225,-2.7783 18.85271,-1.09148" />
  <path
     style="fill:#231f20"
     inkscape:connector-curvature="0"
     id="path106"
     d="m 233.47597,271.38152 c -6.64806,0.0992 -14.88372,0 -21.23411,-0.49613 3.77055,-4.06821 16.96745,-1.48837 21.23411,0.49613" />
  <path
     style="fill:#dcd9d8"
     inkscape:connector-curvature="0"
     id="path108"
     d="m 180.88682,298.17222 c 0.99225,8.33488 4.26667,16.76899 3.86977,25.89767 -3.67132,1.1907 -5.75504,2.28217 -10.71628,2.28217 -0.29767,-7.73953 -1.38914,-19.64651 -1.09147,-27.08837 2.3814,0.19845 5.95349,-1.68682 7.93798,-1.09147" />
  <path
     style="fill:#f0d6b7"
     inkscape:connector-curvature="0"
     id="path110"
     d="m 170.17055,175.13346 c -3.37365,2.18294 -6.15194,4.86201 -9.42636,7.24341 -7.14419,0.3969 -11.01395,-0.49613 -16.17364,-4.56434 0.0992,-0.29768 0.59535,-0.19845 0.59535,-0.59535 7.64031,3.37364 17.36434,-1.38915 25.00465,-2.08372" />
  <path
     style="fill:#81b0c4"
     inkscape:connector-curvature="0"
     id="path112"
     d="m 130.28217,227.02803 c 2.08372,-9.02946 10.31938,-13.79225 17.76124,-18.75349 7.64031,9.72403 12.30388,22.22636 17.46357,34.33179 -12.20465,-3.67132 -24.60775,-9.52559 -35.22481,-15.5783" />
  <path
     style="fill:#231f20"
     inkscape:connector-curvature="0"
     id="path114"
     d="m 172.94884,299.36291 c -0.29767,7.44186 0.69457,19.24962 1.09147,27.08838 4.96124,0 7.04496,-1.09148 10.71628,-2.28217 0.3969,-9.12869 -2.87752,-17.56279 -3.86977,-25.89768 -1.98449,-0.69457 -5.55658,1.1907 -7.93798,1.09147 l 0,0 z M 96.347287,257.2916 c 3.27442,29.86666 7.937993,54.87131 16.570543,81.36434 19.15039,5.85426 42.17054,6.35039 59.13799,1.09147 -3.07597,-14.88372 -1.78605,-33.04186 -3.5721,-49.01705 -1.38914,-12.00621 -0.69457,-24.01241 -2.57984,-36.21706 -20.53954,-4.26666 -49.51318,-0.99225 -69.556593,2.7783 l 0,0 z m 74.418603,-2.57985 c -0.19845,12.8 0.59535,25.50078 1.5876,38.30078 4.96124,-0.69458 8.23566,-1.1907 12.8,-2.28217 -1.48837,-12.30388 -1.28992,-26.29458 -4.36589,-37.20931 -3.47287,0.0992 -6.54884,0 -10.02171,1.1907 l 0,0 z m 24.90543,-2.08372 c -2.38139,-0.49612 -5.06046,0 -7.24341,0 1.09147,10.41861 3.57209,21.92868 4.46512,32.94264 3.47286,0.0992 5.35814,-1.5876 8.23565,-2.08372 0.19845,-9.62481 -0.79379,-22.92093 -5.45736,-30.85892 l 0,0 0,0 z m 37.80465,34.53023 c 7.34264,-1.78604 11.90698,-10.71628 9.82326,-19.94418 -1.38915,-6.15194 -3.77055,-17.86047 -6.44961,-21.82946 -1.88528,-2.87752 -7.14419,-6.74729 -11.41086,-4.06822 -6.84651,4.36589 -18.85271,5.65582 -23.81395,10.91473 2.48062,8.33489 3.27442,19.64651 4.26667,30.16434 8.53333,0.49613 18.95193,-2.38139 26.09612,0.69458 -4.96124,1.58759 -11.31163,1.58759 -15.57829,3.96899 3.57209,1.68682 11.70852,1.38915 17.06666,0.0992 l 0,0 0,0 z m -68.06822,-44.55193 c -5.15969,-12.10543 -9.82325,-24.60776 -17.46356,-34.33179 -7.44186,4.96124 -15.5783,9.72403 -17.76124,18.75349 10.71628,6.05271 23.11938,11.90698 35.2248,15.5783 l 0,0 z m 12.70078,-37.40776 c -0.49612,12.10543 -1.88527,27.9814 -5.06047,37.40776 7.64031,-9.82326 13.89148,-21.13489 20.34109,-32.24807 -2.77829,-4.46511 -8.53333,-8.33488 -15.28062,-5.15969 l 0,0 z m -14.3876,-5.06046 c -2.87752,-0.29768 -5.35814,3.37364 -9.12868,1.78604 -0.89302,0.99225 -1.68682,1.9845 -2.57984,2.97675 8.33488,10.12093 12.20465,24.4093 18.65426,36.21705 3.47287,-11.41085 3.07597,-23.81395 3.86977,-36.21705 -4.76279,0.19845 -7.44186,-4.46512 -10.81551,-4.76279 l 0,0 z m -9.2279,-12.20465 c -0.29768,3.47287 0.49612,4.56434 1.19069,8.53333 11.31163,3.57209 9.42636,-15.57829 -1.19069,-8.53333 l 0,0 z m -12.60155,-4.16744 c -4.86202,-2.67907 -12.20466,-5.55659 -18.55504,-6.74729 -7.83876,-1.48837 -7.04496,10.71628 -6.74729,17.95969 0.29767,5.75504 3.27442,11.80775 4.56434,15.67752 0.59535,1.78604 0.7938,3.67132 2.28217,4.06821 2.67907,0.59535 11.6093,-2.87751 14.08993,-4.26666 5.35813,-2.87752 9.52558,-7.54109 14.08992,-10.71628 0.0992,-1.48837 0.0992,-3.07597 0.19845,-4.56434 -2.7783,-1.38915 -5.85427,-2.28217 -9.92248,-2.48062 2.67907,-1.38915 6.74728,-1.38915 9.2279,-2.97675 0,-0.59535 0,-1.19069 0.0992,-1.78604 -4.56434,-0.49613 -6.25117,-2.48062 -9.32713,-4.16744 l 0,0 z m -46.635666,-8.43411 c -4.068217,4.16744 11.410856,9.72403 16.272876,10.0217 0,-2.57984 1.48837,-5.06046 1.19069,-6.94573 -5.85426,-0.99225 -13.494573,-0.29768 -17.463566,-3.07597 l 0,0 z m 50.009306,1.88527 c 0,0.3969 -0.49612,0.29767 -0.59535,0.59535 5.25891,4.06821 9.12868,4.96124 16.17364,4.56434 3.1752,-2.28217 6.05272,-5.06047 9.42636,-7.24341 -7.73953,0.69457 -17.46356,5.45736 -25.00465,2.08372 l 0,0 z m 45.84186,13.89147 c -0.19845,-4.56434 -1.38915,-13.9907 -4.26667,-15.67752 -5.95349,-3.47287 -16.47131,7.04496 -20.93643,8.63256 0.49612,1.38915 1.28992,2.48062 1.38915,4.26667 2.67907,-0.69458 5.85426,-0.19845 8.13643,0.89302 -2.67907,0.29767 -5.55659,0.29767 -7.34264,1.5876 -0.59534,1.88527 0.19845,4.36589 -0.29767,6.94573 6.25116,1.78605 13.49457,2.67907 21.43256,2.97675 1.48837,-1.9845 2.08372,-5.75504 1.88527,-9.62481 l 0,0 z M 88.409303,179.3009 c -1.289923,-0.89302 -9.922481,-12.10543 -11.113179,-11.6093 -15.578294,6.15193 -30.164341,16.76899 -43.16279,26.88992 12.4031,26.69147 17.463565,59.33643 18.356589,90.7907 14.189147,6.64806 26.691473,16.27286 46.04031,17.26511 -2.282171,-15.77674 -4.266667,-29.96589 -5.556589,-44.84961 -4.862016,-2.08372 -11.807752,0.0992 -16.372093,-0.59535 0,-5.45736 6.945736,-2.38139 7.541085,-6.05271 0.396899,-2.7783 -3.869768,-2.97675 -2.48062,-7.34264 3.572093,1.28993 5.457364,4.16744 9.227907,5.25892 3.472868,-7.54109 0,-20.93644 0.496124,-27.28682 0.09922,-1.1907 0.595349,-6.54884 3.274418,-5.65582 2.381396,0.7938 -0.09922,14.3876 0.09923,20.34109 0.19845,5.55659 -0.694573,10.8155 1.587597,14.28837 18.654258,-2.57985 37.606198,-4.16744 57.848058,-4.76279 -4.46511,-1.88527 -9.72403,-3.67132 -15.47907,-6.94574 -3.17519,-1.78604 -12.99845,-5.45736 -13.89147,-8.43411 -1.48837,-4.76279 3.77054,-7.24341 4.66356,-11.31162 -9.42635,5.15969 -11.2124,-4.96124 -13.49457,-12.00621 -1.98449,-6.44961 -3.17519,-11.31162 -3.67132,-14.98294 -8.23566,-4.16744 -16.967436,-8.03721 -23.913172,-12.99845 l 0,0 0,0 z m 94.462017,-10.31938 c 12.99845,-6.25116 15.37985,23.51628 10.22016,33.14109 0.7938,2.87751 3.47286,3.96899 4.56434,6.54883 -7.24341,12.99845 -15.28062,25.10388 -22.72248,37.90388 5.45736,-3.47287 13.39534,-0.59535 19.84496,-3.1752 2.38139,-0.89302 4.06821,-6.35038 5.85426,-10.71628 4.96124,-11.90697 10.12093,-26.98914 12.4031,-38.30077 0.49613,-2.57985 1.9845,-8.23566 1.5876,-10.51783 -0.59535,-4.16744 -6.15194,-7.24341 -9.02946,-9.72403 -5.25891,-4.76279 -8.53333,-8.83101 -14.08992,-13.29613 -2.08372,3.27442 -6.84651,5.45737 -8.63256,8.13644 l 0,0 0,0 z M 58.741086,53.781525 c -6.151938,6.846512 -4.862016,19.547287 -4.167442,28.675969 11.212403,-7.044961 25.996899,0.595349 25.897674,12.502326 5.35814,-0.09923 1.984496,-6.648062 0.992248,-10.914729 C 78.288372,70.252843 86.821706,55.369122 81.860465,42.767572 72.235659,43.56137 64.3969,47.431138 58.741086,53.781525 l 0,0 0,0 z M 102.99535,14.190828 C 89.004651,18.15982 71.044961,28.379975 65.289923,40.981525 c 4.465116,-0.694573 7.541085,-2.877519 11.906976,-3.175193 1.686822,-0.09922 3.869768,0.694573 5.755039,0.198449 3.770543,-0.992248 7.044961,-9.525581 9.922481,-12.700775 2.778294,-3.075969 6.151938,-4.465116 8.434111,-7.243411 1.48837,-0.694574 3.67132,-0.694574 3.77054,-2.877519 -0.59535,-0.694574 -1.28992,-1.190698 -2.08372,-0.992248 l 0,0 z m 72.93023,3.770542 C 161.33954,9.7257106 136.73179,3.573773 121.25272,11.313308 108.75039,17.564471 91.882171,27.883851 86.127132,40.882301 c 5.35814,12.60155 -1.587597,24.111628 -2.083721,36.911627 -0.19845,6.846512 3.175194,12.700776 3.472868,20.142636 -1.885271,3.075966 -7.44186,3.373636 -11.311628,3.175186 C 74.914729,94.562921 72.632558,87.220285 65.885272,86.426487 56.35969,85.335014 49.314729,93.272998 48.91783,101.50865 c -0.496124,9.72403 7.44186,25.79845 18.753488,24.70698 4.365892,-0.3969 5.457364,-4.76279 10.220155,-4.76279 2.579845,5.15969 -3.968992,6.74728 -4.663566,10.4186 -0.198449,0.99225 0.496124,4.66357 0.992248,6.44961 2.083721,8.43411 6.648062,19.44807 11.113179,25.89768 5.755038,8.23566 16.967446,9.42635 29.072876,10.22015 2.18294,-4.66356 10.12092,-4.26666 15.28061,-3.07597 -6.25116,-2.48062 -12.0062,-8.4341 -16.76899,-13.69302 -5.45736,-6.05271 -11.01395,-12.50232 -11.31163,-20.44031 10.41861,14.3876 18.95194,26.98915 37.80466,33.33954 14.28837,4.76279 30.95814,-2.18295 41.97209,-9.92248 4.56434,-3.1752 7.24341,-8.33489 10.51783,-12.89923 12.10542,-17.46357 17.76124,-42.26977 16.57054,-66.381389 -0.49612,-9.92248 -0.49612,-19.844961 -3.86977,-26.493023 -3.47287,-6.945736 -15.28062,-13.296124 -22.22635,-6.945736 -1.28993,-6.846512 5.75504,-11.013954 13.99069,-8.533333 -5.85426,-7.640311 -12.0062,-16.669768 -20.44031,-21.432559 l 0,0 0,0 z m 27.1876,224.34728 c 11.41085,-5.65581 32.64496,-15.18139 39.68992,0 2.67907,5.65581 5.75504,15.08217 7.04496,20.93643 1.88528,8.13644 -2.08372,25.40156 -10.51782,28.08063 -7.44187,2.38139 -16.07442,2.28217 -25.00466,0.49612 -1.09147,-0.89302 -2.18294,-2.3814 -3.07596,-3.96899 -6.35039,-0.19845 -12.40311,0.29767 -17.36434,2.97674 0.49612,4.76279 -2.67908,5.45737 -5.75504,6.44961 -2.18295,8.83101 4.46511,20.34109 2.87751,28.27907 -1.09147,5.75504 -8.13643,6.64807 -13.29612,7.64031 -0.19845,3.1752 0.19845,5.85427 0.59535,8.53334 -1.1907,4.36589 -6.44961,6.84651 -11.51008,7.44186 -16.57054,1.98449 -41.67442,2.87752 -57.55039,-2.87752 -4.46511,-10.91473 -7.93798,-24.11163 -11.6093,-36.51473 -15.47907,1.68682 -28.080621,-6.64806 -39.888373,-12.20465 -4.068217,-1.88527 -9.72403,-2.97675 -11.311627,-6.25116 -1.488372,-3.1752 -0.893024,-9.22791 -1.289923,-14.88373 -0.893023,-14.58604 -1.786046,-28.67596 -5.556589,-43.55969 -1.686822,-6.74728 -4.762791,-12.60155 -6.846512,-19.05116 -1.984496,-5.95349 -5.358139,-13.39535 -6.251163,-19.34883 -1.289922,-8.83101 7.044962,-9.32714 12.303877,-13.19691 8.235658,-5.95348 14.685271,-9.2279 23.615503,-14.58604 2.67907,-1.5876 10.617055,-5.55659 11.510078,-7.44186 1.786046,-3.67132 -3.075969,-8.83101 -4.365892,-11.70853 -2.08372,-4.56434 -3.175193,-8.43411 -3.472868,-12.89922 -7.44186,-1.1907 -13.196899,-5.65582 -16.570542,-10.61706 -5.655814,-8.33488 -9.624807,-23.71473 -4.663566,-35.324023 0.396899,-0.893023 2.28217,-2.778294 2.579845,-4.167442 0.595349,-2.778294 -1.091473,-6.449612 -1.190698,-9.426356 -0.496124,-15.181396 2.579845,-28.27907 12.8,-32.843411 4.167442,-16.570543 19.051163,-22.027907 33.04186,-30.263566 5.258915,-3.0759694 11.01396,-5.0604656 16.96745,-7.2434113 21.33333,-7.8387597 54.17674,-6.3503876 71.93798,7.0449613 7.54108,5.655814 19.54729,17.662016 23.81395,26.393799 11.41086,22.92093 10.51783,61.32093 2.57985,89.302319 -1.09148,3.77054 -2.57985,9.22791 -4.76279,13.79225 -1.48838,3.17519 -6.15194,9.42635 -5.65582,12.20465 0.59535,2.87752 10.71628,10.51783 12.89923,12.60155 3.86977,3.77054 11.31163,8.73178 11.90697,13.49457 0.69458,5.06047 -2.18294,12.0062 -3.67131,16.86822 -4.76279,16.27287 -9.52558,31.25581 -14.98295,45.84186 l 0,0 z" />
  <path
     style="fill:#f7e4cd"
     inkscape:connector-curvature="0"
     id="path116"
     d="m 127.2062,129.58927 c 0.59535,-0.7938 3.969,-2.08372 8.73179,0.19845 0,0 -5.65582,0.89302 -5.15969,10.31938 l -2.3814,-0.49612 c 0.0992,0.0992 -2.38139,-8.43411 -1.1907,-10.02171" />
  <path
     style="fill:#1d1919"
     inkscape:connector-curvature="0"
     id="path118"
     d="m 168.28527,210.15981 c 0,1.38915 -1.19069,2.57985 -2.57984,2.57985 -1.38915,0 -2.57985,-1.1907 -2.57985,-2.57985 0,-1.38914 1.1907,-2.57984 2.57985,-2.57984 1.48837,0 2.57984,1.1907 2.57984,2.57984" />
  <path
     style="fill:#1d1919"
     inkscape:connector-curvature="0"
     id="path120"
     d="m 170.86512,222.16602 c 0,1.38914 -1.1907,2.57984 -2.57985,2.57984 -1.38914,0 -2.57984,-1.1907 -2.57984,-2.57984 0,-1.38915 1.1907,-2.57985 2.57984,-2.57985 1.48838,0 2.57985,1.09147 2.57985,2.57985" />
</svg>
