<?xml version="1.0" encoding="UTF-8" standalone="no"?>
<svg id="svg2" xmlns:rdf="http://www.w3.org/1999/02/22-rdf-syntax-ns#" xmlns="http://www.w3.org/2000/svg" height="649.43" width="649.43" version="1.1" xmlns:cc="http://creativecommons.org/ns#" xmlns:dc="http://purl.org/dc/elements/1.1/">
 <metadata id="metadata7">
  <rdf:RDF>
   <cc:Work rdf:about="">
    <dc:format>image/svg+xml</dc:format>
    <dc:type rdf:resource="http://purl.org/dc/dcmitype/StillImage"/>
    <dc:title/>
   </cc:Work>
  </rdf:RDF>
 </metadata>
 <g id="layer1" transform="translate(-33.857124,-200.50502)">
  <g id="g3050">
   <path id="path3064" fill="#d5d5fc" d="m159.38,844.58c-22.671-5.0066-59.981-3.2043-66.404-30.216,10.882-18.836,36.412-19.252,55.524-25.485,11.823-0.60621,18.02-5.6787,15.156-17.944-0.38819-28.308,3.5895-57.045-0.77194-85.003-15.817-14.631-54.657-3.5973-47.837-38.262-1.7376-83.991-1.3748-168.09,0.46448-252.08-7.0071-29.421,26.227-29.91,45.789-37.555,7.506-4.2695,23.743-1.95,20.544-14.299,1.141-39.823,2.282-79.645,3.423-119.47,25.001-9.8614,50.696-19.93,78.2-17.469,61.273-1.4706,122.01,7.8953,182.76,13.743,7.9689,4.7611,28.822,0.26323,25.401,14.286,0.62204,47.371,1.2441,94.741,1.8661,142.11,16.878,10.325,48.33-3.5915,52.369,20.673,5.4588,66.887,2.8131,134.24,3.6612,201.31-3.5815,21.949,11.373,63.218-22.975,64.122-8.1285,3.852-24.549,0.93635-27.581,8.9155,0.0165,38.042,0.0331,76.084,0.0496,114.13,22.694,6.8195,49.529,7.3273,67.078,24.637,2.2632,30.11-42.269,28.403-64.193,33.526-92.519,7.5773-185.62,5.3676-278.34,3.2026-14.745-0.62327-29.513-1.2308-44.185-2.8753z"/>
   <path id="path3062" fill="#daafe7" d="m187.09,847.58c-21.276-2.5277-61.304-12.011-76.7-18.171-16.091-6.4385-19.371-16.751-7.3707-23.174,3.9278-2.1021,19.936-6.8389,35.573-10.526l28.431-6.7043,1.0161-52.252c0.55886-28.739-0.4985-53.766-2.3497-55.618-1.8512-1.8512-12.98-5.2637-24.731-7.5834l-21.365-4.2176v-147.6-147.6l29.326-9.2846c16.129-5.1065,31.316-10.613,33.748-12.236,3.165-2.1124,4.4225-19.985,4.4225-62.852,0-58.135,0.24196-60.055,8.2091-65.138,14.707-9.3828,57.763-20.486,77.002-19.857,15.667,0.51191,16.52,0.84923,5.1618,2.0401l-13.608,1.4268-0.98548,75.49-0.98548,75.49-24.627-1.2365-24.627-1.2365v161.24,161.24l37.397-1.2922,37.397-1.2922,1.8242,81.187c1.0033,44.653,3.0869,81.412,4.6301,81.687,9.7526,1.739,68.356-9.1311,68.442-12.695,0.0566-2.332,0.46702-38.718,0.91212-80.858l0.80928-76.618h16.418,16.418l0.98468,77.53c1.1193,88.132-2.9478,80.1,37.324,73.716,33.749-5.3498,35.904-6.3548,37.171-17.339,1.039-9.0042,2.403-9.8051,15.732-9.2376,24.119,1.0271,54.554,12.763,55.806,21.52,1.2925,9.0394-7.5437,13.64-46.685,24.305-24.911,6.788-39.463,7.5374-162.36,8.362-74.246,0.49824-140.74,0.22329-147.76-0.61123zm208.09-515.49c-2.0773-3.8814-3.7768-10.318-3.7768-14.304,0-7.5213-6.9076-10.097-32.836-12.243-10.735-0.88847-12.95,0.20865-13.901,6.8873-1.9043,13.374-9.6394,16.862-31.373,14.146-12.588-1.5728-20.564-4.4893-21.917-8.0144-3.128-8.1514,1.975-55.885,6.2574-58.531,5.8825-3.6356,39.877-1.3511,45.162,3.0349,2.6544,2.2029,4.8261,7.6857,4.8261,12.184,0,6.9638,2.5141,8.5231,16.927,10.499,25.629,3.5129,28.476,2.995,32.374-5.8889,4.2182-9.6148,26.54-12.922,43.554-6.4536l10.339,3.9309-2.0522,27.135c-1.1287,14.924-3.1008,28.832-4.3823,30.905-1.2816,2.0736-12.026,3.7702-23.877,3.7702-17.569,0-22.244-1.3029-25.324-7.0571zm35.644-26.691c1.0995-17.135,0.98663-17.33-10.033-17.33-10.713,0-11.145,0.61262-11.145,15.81,0,18.038,2.1406,21.416,12.62,19.916,6.1112-0.87479,7.6466-4.1749,8.5591-18.396zm-101.44-13.93c0-18.013-0.2562-18.455-10.033-17.33-9.1882,1.0572-10.127,2.6142-11.145,18.485-1.0995,17.135-0.98663,17.33,10.033,17.33,10.962,0,11.145-0.30479,11.145-18.485z"/>
   <path id="path3060" fill="#b7b7e5" d="m202.6,847.42c3.5117-0.91767,9.258-0.91767,12.77,0,3.5116,0.9177,0.63848,1.6686-6.3848,1.6686s-9.8965-0.75085-6.3848-1.6686zm222.56,0c3.5117-0.91767,9.258-0.91767,12.77,0,3.5116,0.9177,0.63848,1.6686-6.3848,1.6686s-9.8965-0.75085-6.3848-1.6686zm-255.39-3.6485c3.5116-0.91766,9.258-0.91766,12.77,0,3.5117,0.9177,0.63848,1.6686-6.3848,1.6686s-9.8965-0.75086-6.3848-1.6686zm288.23,0c3.5117-0.91766,9.258-0.91766,12.77,0,3.5117,0.9177,0.63849,1.6686-6.3848,1.6686s-9.8965-0.75086-6.3848-1.6686zm-238.06-18.716-49.254-17.078-1.0041-61.934c-0.55223-34.063-2.4305-63.36-4.1739-65.103-1.7434-1.7434-12.784-5.0678-24.535-7.3874l-21.365-4.2176v-147.6-147.6l29.326-9.2846c16.129-5.1065,31.316-10.613,33.748-12.236,3.165-2.1124,4.4225-19.985,4.4225-62.852,0-58.135,0.24196-60.055,8.2091-65.138,14.707-9.3828,57.763-20.486,77.002-19.857,15.667,0.51191,16.52,0.84923,5.1618,2.0401l-13.608,1.4268-0.98548,75.49-0.98548,75.49-24.627-1.2365-24.627-1.2365v161.24,161.24l37.397-1.2922,37.397-1.2922,0.98062,83.003,0.98062,83.003-10.102-0.25247c-5.556-0.13883-32.266-7.9374-59.356-17.33zm152.25-1.2761-10.106-3.6888,0.98514-75.377,0.98514-75.377,16.418,0,16.418,0,0.98327,79.354,0.98326,79.354-8.2802-0.28787c-4.5541-0.15834-12.828-1.948-18.387-3.9768zm23.004-491.69c-2.0773-3.8814-3.7768-10.318-3.7768-14.304,0-7.5213-6.9076-10.097-32.836-12.243-10.735-0.88847-12.95,0.20865-13.901,6.8873-1.9043,13.374-9.6394,16.862-31.373,14.146-12.588-1.5728-20.564-4.4893-21.917-8.0144-3.128-8.1514,1.975-55.885,6.2574-58.531,5.8825-3.6356,39.877-1.3511,45.162,3.0349,2.6544,2.2029,4.8261,7.6857,4.8261,12.184,0,6.9638,2.5141,8.5231,16.927,10.499,25.629,3.5129,28.476,2.995,32.374-5.8889,4.2182-9.6148,26.54-12.922,43.554-6.4536l10.339,3.9309-2.0522,27.135c-1.1287,14.924-3.1008,28.832-4.3823,30.905-1.2816,2.0736-12.026,3.7702-23.877,3.7702-17.569,0-22.244-1.3029-25.324-7.0571zm35.644-26.691c1.0995-17.135,0.98663-17.33-10.033-17.33-10.713,0-11.145,0.61262-11.145,15.81,0,18.038,2.1406,21.416,12.62,19.916,6.1112-0.87479,7.6466-4.1749,8.5591-18.396zm-101.45-13.92c0-18.013-0.2562-18.455-10.033-17.33-9.1882,1.0572-10.127,2.6142-11.145,18.485-1.0995,17.135-0.98663,17.33,10.033,17.33,10.962,0,11.145-0.30479,11.145-18.485z"/>
   <path id="path3058" fill="#ababcf" d="m206.32,847.41c3.5498-0.92503,8.4753-0.86421,10.945,0.13536,2.4701,0.99943-0.43428,1.7563-6.4543,1.6819s-8.041-0.89205-4.4912-1.8171zm218.91,0c3.5499-0.92503,8.4753-0.86421,10.945,0.13536,2.4701,0.99943-0.43428,1.7563-6.4543,1.6819s-8.041-0.89205-4.4912-1.8171zm-251.74-3.6485c3.5498-0.92504,8.4753-0.86422,10.945,0.13536,2.4701,0.99942-0.43428,1.7563-6.4543,1.6819s-8.041-0.89206-4.4912-1.8171zm284.58,0c3.5499-0.92504,8.4753-0.86422,10.945,0.13536,2.4701,0.99942-0.43428,1.7563-6.4543,1.6819s-8.041-0.89206-4.4912-1.8171zm-236.31-18.837-51.079-17.146,1.3316-61.044c0.94744-43.432,0.0843-62.546-2.9917-66.253-2.3778-2.8651-13.189-6.317-24.025-7.6709s-21.413-4.5225-23.503-7.0415c-2.5286-3.0468-3.4811-51.935-2.8455-146.05,0.81946-121.34,1.7342-141.89,6.4281-144.42,3.01-1.6221,17.786-6.726,32.836-11.342l27.364-8.3928,2.0434-63.848c1.1239-35.117,2.3552-64.124,2.7364-64.461,0.38112-0.33688,14.238-5.0926,30.793-10.568,16.555-5.4757,32.186-10.725,34.736-11.664,3.6749-1.3543,4.4312,14.072,3.6485,74.417l-0.98742,76.125-24.627-1.2866-24.627-1.2866v164.99,164.99l37.397-1.3466,37.397-1.3465v80.216c0,68.57-0.79455,80.315-5.4727,80.893-3.01,0.37225-28.458-7.039-56.551-16.469zm155.06-1.6024-9.1212-4.6114,0-72.862,0-72.862,12.77,0,12.77,0,0,76.314c0,47.671-1.3694,76.749-3.6485,77.473-2.0067,0.63757-7.753-0.91591-12.77-3.4522zm32.836-487.39c-11.224-1.983-12.99-3.7954-14.594-14.973-1.6543-11.532-3.1834-12.957-16.418-15.296-27.873-4.9262-32.725-3.8895-37.192,7.9456-3.8263,10.137-5.4694,10.945-22.244,10.945-24.216,0-27.793-4.8312-25.424-34.338,2.3155-28.846,3.8378-31.335,19.166-31.335,19.802,0,31.034,5.8205,31.034,16.082,0,9.9244,3.0074,11.339,31.886,15.003,18.191,2.3079,19.291,1.9675,22.713-7.033,3.1252-8.22,5.7184-9.4584,19.806-9.4584,26.386,0,27.752,1.3784,27.752,27.994,0,36.798-3.6659,40.26-36.485,34.462zm23.93-20.058c1.1982-4.7742,1.64-13.394,0.98162-19.154-1.0189-8.9155-2.8108-10.474-12.041-10.474-9.9653,0-11.066,1.2988-13.579,16.02-3.3302,19.508-1.8578,22.289,11.8,22.289,8.1842,0,11.167-2.0164,12.839-8.6804zm-103.48-20.11c3.2969-19.408,1.8214-22.289-11.417-22.289-9.1997,0-10.512,1.5554-12.663,15.002-2.7502,17.199,2.2761,26.065,13.829,24.396,5.7799-0.83542,8.1608-4.8094,10.25-17.108zm-54.468-90.49c3.5498-0.92505,8.4753-0.86421,10.945,0.13519,2.4701,0.9994-0.43428,1.7563-6.4543,1.6819s-8.041-0.89204-4.4912-1.8171z"/>
   <path id="path3056" fill="#9292c7" d="m226.19,822.72c-25.654-8.5795-47.819-16.774-49.254-18.211-1.4358-1.4365-2.0727-28.333-1.4154-59.77,1.4117-67.52,0.93472-68.689-30.604-75.007l-21.67-4.3409v-143.8-143.8l29.326-9.2845c16.129-5.1065,31.316-10.613,33.748-12.236,3.173-2.1177,4.4225-20.341,4.4225-64.498v-61.547l19.918-7.4523c10.955-4.0988,24.105-8.5031,29.222-9.7875,5.1174-1.2844,10.207-3.7952,11.309-5.5795,6.6855-10.817,8.3812,4.6346,7.7517,70.637l-0.70458,73.882-24.404-1.2189-24.404-1.2189-2.183,12.164c-1.2007,6.6904-1.7114,81.941-1.135,167.22l1.0481,155.06,37.397-1.1475,37.397-1.1476v78.678c0,60.689-1.0427,78.601-4.5606,78.341-2.5083-0.18534-25.55-7.3564-51.205-15.936zm151.54-2.2804c-8.127-3.0715-8.2091-3.8147-8.2091-74.365v-71.263h10.945,10.945v72.754c0,40.015-1.2314,73.479-2.7364,74.365-1.505,0.88614-6.4304,0.21489-10.945-1.4914zm25.539-487.27c-2.5083-1.059-4.5606-6.7548-4.5606-12.657,0-12.766-7.2054-16.404-36.352-18.35-18.57-1.2403-19.925-0.75952-21.983,7.7994-2.0072,8.3464-3.884,9.1212-22.096,9.1212h-19.902l-1.1277-19.872c-0.62021-10.929-0.15739-23.737,1.0285-28.462,1.9681-7.8416,3.8162-8.4949,21.194-7.492,16.366,0.94454,19.197,2.2138,20.169,9.0429,1.7212,12.088,8.647,15.77,34.021,18.09,21.889,2.0012,23.433,1.6288,26.872-6.4829,3.2632-7.6972,5.5751-8.4682,21.891-7.3006,10.033,0.71797,19.063,2.6104,20.067,4.2053,1.0033,1.595,1.0033,14.142,0,27.882l-1.8242,24.982-16.418,0.70937c-9.03,0.39014-18.47-0.15711-20.979-1.2162zm31.796-12.023c5.1252-9.5765,4.7736-30.62-0.60135-35.995-5.7156-5.7156-19.297-5.6117-23.857,0.18242-5.7499,7.3066-8.4479,32.762-4.0359,38.078,6.1159,7.3693,24.103,5.939,28.494-2.2658zm-107.13-6.69c5.6268-3.7395,8.6934-35.924,3.8814-40.736-4.4455-4.4455-23.077-5.2961-25.521-1.1651-0.89028,1.505-2.7355,9.4903-4.1005,17.745-1.8946,11.458-1.0693,16.421,3.4882,20.979,6.3142,6.3142,15.548,7.6329,22.252,3.1778z"/>
   <path id="path3054" fill="#8687bc" d="m226.31,818.38-50.167-16.228,0-63.763c0-72.38,2.4542-67.113-33.748-72.43l-17.33-2.5451v-141.91-141.91l25.021-7.4514c13.761-4.0983,26.779-7.4514,28.927-7.4514,2.1486,0,6.4866-2.58,9.64-5.7333,4.7548-4.7548,5.7333-16.142,5.7333-66.723v-60.989l29.401-9.6386c21.501-7.0488,29.858-8.4478,31.102-5.2067,0.93537,2.4375,1.2499,33.106,0.69903,68.152l-1.0016,63.72-22.392-1.2284c-13.725-0.7529-23.359,0.3353-24.889,2.8113-1.3732,2.2218-2.5252,79.119-2.5602,170.88l-0.0635,166.84,36.81-0.91336,36.81-0.91339v74.795c0,41.137-0.41045,74.63-0.91211,74.429-0.50167-0.20139-23.487-7.6687-51.079-16.594zm197.03,9.39c0-66.889,0.25605-69.321,7.297-69.321,7.0409,0,7.297,2.4323,7.297,69.321s-0.25605,69.321-7.297,69.321c-7.0409,0-7.297-2.4323-7.297-69.321zm27.214-419.82c-3.9267-6.3536,0.54552-7.6992,5.5496-1.6697,2.8777,3.4674,3.1545,5.5609,0.73524,5.5609-2.1339,0-4.9621-1.751-6.2848-3.8912zm32.986,0.24273c1.2402-2.0067,2.9789-3.6485,3.8638-3.6485s1.6089,1.6418,1.6089,3.6485-1.7387,3.6485-3.8638,3.6485-2.8491-1.6418-1.6089-3.6485zm-107.63-8.67c0-0.75763,2.4627-3.4214,5.4727-5.9194,4.4822-3.7199,5.4727-3.4706,5.4727,1.3775,0,3.2557-2.4627,5.9194-5.4727,5.9194s-5.4727-0.61987-5.4727-1.3775zm-29.188-8.1904c0-4.8481,0.99053-5.0974,5.4727-1.3775,3.01,2.4981,5.4727,5.1618,5.4727,5.9194,0,0.75762-2.4627,1.3775-5.4727,1.3775s-5.4727-2.6638-5.4727-5.9194zm97.557-5.486c-3.4477-1.9294-17.844-4.0493-31.993-4.7108-14.148-0.6615-26.629-2.1077-27.735-3.2137s-0.97914-5.2621,0.28203-9.2356c2.1154-6.6652,3.101-6.8215,12.728-2.0192,5.739,2.863,21.275,5.5267,34.525,5.9194,20.093,0.59545,24.09,1.7573,24.09,7.0016,0,8.3337-4.2209,10.554-11.897,6.2583zm41.252-21.118c-2.8238-5.2764-2.8794-7.6094-0.18111-7.6094,4.4231,0,9.2402,10.232,6.2329,13.239-1.0887,1.0886-3.812-1.4449-6.0518-5.6301zm-33.004-2.1367c0-3.01,2.6638-5.4727,5.9194-5.4727,4.8481,0,5.0974,0.99053,1.3775,5.4727-2.4981,3.01-5.1618,5.4727-5.9194,5.4727-0.75764,0-1.3775-2.4627-1.3775-5.4727zm-69.321-10.945c-3.7199-4.4822-3.4706-5.4727,1.3775-5.4727,3.2557,0,5.9194,2.4627,5.9194,5.4727s-0.61987,5.4727-1.3775,5.4727c-0.75762,0-3.4214-2.4627-5.9194-5.4727zm-32.836-1.3936c0-2.0067,1.6418-4.6632,3.6485-5.9034s3.6485-0.61307,3.6485,1.3936-1.6418,4.6632-3.6485,5.9034-3.6485,0.61306-3.6485-1.3936z"/>
   <path id="path3052" fill="#76798c" d="m385.93,302.66c-6.02-1.5318-19.565-2.9794-30.1-3.2168-16.691-0.37615-19.154-1.3866-19.154-7.857,0-6.2792,1.1193-6.8263,7.2514-3.5445,3.9883,2.1344,18.748,4.2445,32.8,4.689,21.576,0.68248,25.555,1.8009,25.585,7.193,0.0387,6.8818-0.0398,6.8949-16.382,2.7364z"/>
  </g>
 </g>
</svg>
